<svg xmlns="http://www.w3.org/2000/svg" viewBox="0 0 841.9 595.3">
  <g fill="#61DAFB">
    <path d="M666.3 296.5c0-32.5-40.7-63.3-103.1-82.4 14.4-10.3 27.7-21.2 40-33.1 68-65.9 106.9-147.3 106.9-231.7C710.1 84.9 618.3 0 500 0 381.7 0 290 84.9 290 199.4c0 84.4 38.9 165.8 106.9 231.7 12.3 11.9 25.6 22.8 40 33.1-62.4 19.1-103.1 49.9-103.1 82.4 0 32.5 40.7 63.3 103.1 82.4-14.4 10.3-27.7 21.2-40 33.1-68 65.9-106.9 147.3-106.9 231.7C290 710.1 381.7 800 500 800c118.3 0 210-84.9 210-199.4 0-84.4-38.9-165.8-106.9-231.7-12.3-11.9-25.6-22.8-40-33.1 62.4-19.1 103.1-49.9 103.1-82.4zM500 530.7c-154.9 0-279.9-118.8-279.9-264.6 0-145.8 125-264.6 279.9-264.6S779.9 120.3 779.9 266.1C779.9 411.9 654.9 530.7 500 530.7z"/>
    <circle cx="500" cy="266.1" r="45.8"/>
  </g>
</svg>